<svg viewBox="0 0 220 320" xmlns="http://www.w3.org/2000/svg"><defs><linearGradient id="lb" x1="0" y1="0" x2="0" y2="1"><stop offset="0%" stop-color="#f5ede0"/><stop offset="100%" stop-color="#ecddd0"/></linearGradient></defs><rect width="220" height="320" fill="url(#lb)"/><rect x="6" y="6" width="208" height="308" fill="none" stroke="#2a1208" stroke-width="1.5"/><rect x="10" y="10" width="200" height="300" fill="none" stroke="#2a1208" stroke-width=".5"/><g transform="translate(20,36)"><rect width="180" height="82" fill="#8b5030" opacity=".15"/><rect y="56" width="180" height="26" fill="#3a5878" opacity=".35"/><polygon points="0,82 25,40 48,55 75,25 105,46 132,30 155,50 180,82" fill="#2a1208" opacity=".72"/><g fill="#2a1208" opacity=".55"><polygon points="25,40 32,20 39,40"/><polygon points="75,25 82,5 89,25"/><polygon points="132,30 139,10 146,30"/></g></g><line x1="20" y1="130" x2="200" y2="130" stroke="#2a1208" stroke-width=".8"/><text x="110" y="154" text-anchor="middle" font-family="Georgia,serif" font-size="11" font-weight="bold" fill="#2a1208" letter-spacing="1">Xavier Vignon Gigondas</text><line x1="20" y1="166" x2="200" y2="166" stroke="#2a1208" stroke-width=".8"/><text x="110" y="186" text-anchor="middle" font-family="Georgia,serif" font-size="7.5" fill="#2a1208" letter-spacing="2">Gigondas, Rhône Valley, France</text><text x="110" y="226" text-anchor="middle" font-family="Georgia,serif" font-size="34" fill="#2a1208">2019</text><text x="110" y="302" text-anchor="middle" font-family="Georgia,serif" font-size="6.5" fill="#2a1208" opacity=".75">750 ml</text></svg>