<svg viewBox="0 0 220 320" xmlns="http://www.w3.org/2000/svg"><rect width="220" height="320" fill="#f2ecd8"/><rect x="6" y="6" width="208" height="308" fill="none" stroke="#3a1a08" stroke-width="2"/><rect x="10" y="10" width="200" height="300" fill="none" stroke="#3a1a08" stroke-width=".5"/><rect x="6" y="6" width="208" height="40" fill="#3a1a08"/><text x="110" y="31" text-anchor="middle" font-family="Georgia,serif" font-size="11.5" fill="#e8c060" letter-spacing="4">VEGA SICILIA</text><g transform="translate(110,108)"><circle cx="0" cy="0" r="44" fill="none" stroke="#3a1a08" stroke-width="1.5"/><circle cx="0" cy="0" r="37" fill="none" stroke="#3a1a08" stroke-width=".6"/><g fill="#3a1a08"><rect x="-24" y="-22" width="13" height="30"/><rect x="-26" y="-27" width="5" height="7"/><rect x="-19" y="-27" width="5" height="7"/><rect x="-12" y="-27" width="5" height="7"/><rect x="11" y="-22" width="13" height="30"/><rect x="9" y="-27" width="5" height="7"/><rect x="16" y="-27" width="5" height="7"/><rect x="23" y="-27" width="5" height="7"/><rect x="-11" y="-12" width="22" height="20"/><rect x="-5" y="-4" width="10" height="12"/></g></g><text x="110" y="166" text-anchor="middle" font-family="Georgia,serif" font-size="17" font-style="italic" fill="#3a1a08">Unico</text><line x1="28" y1="174" x2="192" y2="174" stroke="#3a1a08" stroke-width=".8"/><text x="110" y="190" text-anchor="middle" font-family="Georgia,serif" font-size="7.5" fill="#3a1a08" letter-spacing="3">RIBERA DEL DUERO</text><text x="110" y="205" text-anchor="middle" font-family="Georgia,serif" font-size="7" fill="#6a3a18" letter-spacing="2">DENOMINACION DE ORIGEN</text><text x="110" y="245" text-anchor="middle" font-family="Georgia,serif" font-size="38" fill="#3a1a08">2015</text><line x1="38" y1="256" x2="182" y2="256" stroke="#3a1a08" stroke-width=".6"/><text x="110" y="274" text-anchor="middle" font-family="Georgia,serif" font-size="7" fill="#3a1a08" letter-spacing="2.5">RESERVA ESPECIAL</text><text x="110" y="290" text-anchor="middle" font-family="Georgia,serif" font-size="6.5" fill="#3a1a08">TEMPRANILLO MERLOT CABERNET</text><text x="110" y="305" text-anchor="middle" font-family="Georgia,serif" font-size="6.5" fill="#3a1a08">BODEGAS VEGA SICILIA VALLADOLID</text></svg>