<svg viewBox="0 0 220 320" xmlns="http://www.w3.org/2000/svg"><rect width="220" height="320" fill="#f8f0df"/><rect x="6" y="6" width="208" height="308" fill="none" stroke="#2a1a08" stroke-width="1.5"/><rect x="11" y="11" width="198" height="298" fill="none" stroke="#2a1a08" stroke-width=".5"/><g transform="translate(20,42)"><rect width="180" height="75" fill="#a8b8c8" opacity=".35"/><rect y="52" width="180" height="23" fill="#3a6080" opacity=".45"/><polygon points="0,75 28,38 52,54 78,28 108,48 136,32 158,52 180,75" fill="#2a1808"/><g fill="#122808"><polygon points="28,38 35,18 42,38"/><polygon points="78,28 85,8 92,28"/><polygon points="136,32 143,12 150,32"/></g><rect x="100" y="44" width="28" height="20" fill="#b89858" opacity=".8"/><polygon points="98,44 114,34 130,44" fill="#7a4820"/><rect y="75" width="180" height="4" fill="#2a1808"/></g><text x="110" y="36" text-anchor="middle" font-family="Georgia,serif" font-size="7" fill="#2a1a08" letter-spacing="3">TENUTA SAN GUIDO</text><line x1="22" y1="130" x2="198" y2="130" stroke="#2a1a08" stroke-width=".8"/><text x="110" y="155" text-anchor="middle" font-family="Georgia,serif" font-size="28" font-style="italic" fill="#2a1a08">Sassicaia</text><line x1="22" y1="165" x2="198" y2="165" stroke="#2a1a08" stroke-width=".8"/><text x="110" y="181" text-anchor="middle" font-family="Georgia,serif" font-size="7.5" fill="#2a1a08" letter-spacing="2.5">BOLGHERI SASSICAIA DOC</text><text x="110" y="197" text-anchor="middle" font-family="Georgia,serif" font-size="7" fill="#6a4020" letter-spacing="2">CABERNET SAUVIGNON</text><text x="110" y="240" text-anchor="middle" font-family="Georgia,serif" font-size="38" fill="#2a1a08">2017</text><line x1="42" y1="252" x2="178" y2="252" stroke="#2a1a08" stroke-width=".6"/><text x="110" y="272" text-anchor="middle" font-family="Georgia,serif" font-size="7" fill="#2a1a08" letter-spacing="2.5">TOSCANA ITALIA</text><text x="110" y="290" text-anchor="middle" font-family="Georgia,serif" font-size="6.5" fill="#2a1a08">PRODOTTO E IMBOTTIGLIATO DA</text><text x="110" y="306" text-anchor="middle" font-family="Georgia,serif" font-size="6.5" fill="#2a1a08">TENUTA SAN GUIDO 750 ml 13.5%</text></svg>