<svg viewBox="0 0 220 320" xmlns="http://www.w3.org/2000/svg"><defs><linearGradient id="gr-bg" x1="0" y1="0" x2="0" y2="1"><stop offset="0%" stop-color="#f0ece2"/><stop offset="100%" stop-color="#e4ddd0"/></linearGradient></defs><rect width="220" height="320" fill="url(#gr-bg)"/><rect x="6" y="6" width="208" height="308" fill="none" stroke="#180808" stroke-width="2"/><rect x="6" y="6" width="208" height="88" fill="#180808"/><g transform="translate(110,50)"><polygon points="0,-38 30,-19 30,13 0,34 -30,13 -30,-19" fill="#c09820" stroke="#f0c020" stroke-width="1.2"/><text x="0" y="6" text-anchor="middle" font-family="Georgia,serif" font-size="8.5" fill="#180808" font-weight="bold">PENFOLDS</text><text x="0" y="-16" text-anchor="middle" font-family="Georgia,serif" font-size="5.5" fill="#180808">EST.</text><text x="0" y="-8" text-anchor="middle" font-family="Georgia,serif" font-size="6.5" fill="#180808">1844</text></g><text x="110" y="116" text-anchor="middle" font-family="Georgia,serif" font-size="21" font-weight="bold" fill="#180808" letter-spacing="2">GRANGE</text><line x1="18" y1="124" x2="202" y2="124" stroke="#180808" stroke-width="1.2"/><text x="110" y="142" text-anchor="middle" font-family="Georgia,serif" font-size="7.5" fill="#3a2010" letter-spacing="2.5">SOUTH AUSTRALIA</text><rect x="78" y="156" width="64" height="30" rx="2" fill="#180808"/><text x="110" y="177" text-anchor="middle" font-family="Georgia,serif" font-size="14" fill="#c09820" letter-spacing="3">BIN 95</text><text x="110" y="226" text-anchor="middle" font-family="Georgia,serif" font-size="40" fill="#180808">2020</text><line x1="22" y1="237" x2="198" y2="237" stroke="#180808" stroke-width=".8"/><text x="110" y="257" text-anchor="middle" font-family="Georgia,serif" font-size="8" fill="#180808" letter-spacing="2.5">SHIRAZ</text><text x="110" y="276" text-anchor="middle" font-family="Georgia,serif" font-size="6.5" fill="#3a2010">MULTI-REGIONAL BLEND</text><text x="110" y="295" text-anchor="middle" font-family="Georgia,serif" font-size="6.5" fill="#3a2010">PRODUCED AND BOTTLED BY PENFOLDS</text><text x="110" y="308" text-anchor="middle" font-family="Georgia,serif" font-size="6.5" fill="#3a2010">NURIOOTPA S.A. 14.5% ALC VOL 750 ml</text></svg>