<svg viewBox="0 0 220 320" xmlns="http://www.w3.org/2000/svg"><defs><linearGradient id="mg-bg" x1="0" y1="0" x2="0" y2="1"><stop offset="0%" stop-color="#faf6ee"/><stop offset="100%" stop-color="#f0e8d4"/></linearGradient></defs><rect width="220" height="320" fill="url(#mg-bg)"/><rect x="6" y="6" width="208" height="308" fill="none" stroke="#1a1208" stroke-width="1.5"/><rect x="10" y="10" width="200" height="300" fill="none" stroke="#1a1208" stroke-width=".5"/><g transform="translate(30,44) scale(0.73)"><rect width="220" height="85" fill="#c8b870" opacity=".25"/><rect y="62" width="220" height="23" fill="#4a6888" opacity=".4"/><polygon points="10,85 55,42 80,58 110,28 140,48 165,33 185,55 210,85" fill="#2a1a0a"/><g fill="#152808"><polygon points="30,42 37,22 44,42"/><polygon points="80,28 87,8 94,28"/><polygon points="140,33 147,13 154,33"/></g><rect x="55" y="52" width="110" height="33" fill="#1a1208"/><rect x="62" y="46" width="5" height="39" fill="#1a1208"/><rect x="75" y="46" width="5" height="39" fill="#1a1208"/><rect x="140" y="46" width="5" height="39" fill="#1a1208"/><rect x="153" y="46" width="5" height="39" fill="#1a1208"/><polygon points="50,52 110,14 170,52" fill="#1a1208"/><rect x="15" y="66" width="40" height="19" fill="#1a1208"/><rect x="165" y="66" width="40" height="19" fill="#1a1208"/><rect x="70" y="60" width="9" height="12" fill="#8a7840" opacity=".7"/><rect x="88" y="60" width="9" height="12" fill="#8a7840" opacity=".7"/><rect x="133" y="60" width="9" height="12" fill="#8a7840" opacity=".7"/><rect x="151" y="60" width="9" height="12" fill="#8a7840" opacity=".7"/></g><line x1="20" y1="50" x2="200" y2="50" stroke="#1a1208" stroke-width=".8"/><line x1="20" y1="170" x2="200" y2="170" stroke="#1a1208" stroke-width=".8"/><text x="110" y="38" text-anchor="middle" font-family="Georgia,serif" font-size="6.5" fill="#1a1208" letter-spacing="3.5">PREMIER GRAND CRU CLASSE</text><text x="110" y="188" text-anchor="middle" font-family="Georgia,serif" font-size="19" font-weight="bold" fill="#1a1208" letter-spacing="1">CHATEAU</text><text x="110" y="208" text-anchor="middle" font-family="Georgia,serif" font-size="19" font-weight="bold" fill="#1a1208" letter-spacing="1">MARGAUX</text><line x1="40" y1="216" x2="180" y2="216" stroke="#1a1208" stroke-width=".6"/><text x="110" y="232" text-anchor="middle" font-family="Georgia,serif" font-size="8.5" fill="#1a1208" letter-spacing="3">MARGAUX</text><text x="110" y="248" text-anchor="middle" font-family="Georgia,serif" font-size="7" fill="#1a1208" letter-spacing="1.5">APPELLATION MARGAUX CONTROLEE</text><text x="110" y="272" text-anchor="middle" font-family="Georgia,serif" font-size="22" fill="#1a1208" letter-spacing="2">2018</text><text x="110" y="290" text-anchor="middle" font-family="Georgia,serif" font-size="6.5" fill="#1a1208" letter-spacing="1.5">MIS EN BOUTEILLE AU CHATEAU</text><text x="110" y="304" text-anchor="middle" font-family="Georgia,serif" font-size="6" fill="#1a1208">750 ml 13% vol</text></svg>