<svg viewBox="0 0 220 320" xmlns="http://www.w3.org/2000/svg"><defs><linearGradient id="op-bg" x1="0" y1="0" x2="0" y2="1"><stop offset="0%" stop-color="#080808"/><stop offset="100%" stop-color="#181005"/></linearGradient></defs><rect width="220" height="320" fill="url(#op-bg)"/><rect x="8" y="8" width="204" height="304" fill="none" stroke="#c8a84a" stroke-width="1"/><rect x="13" y="13" width="194" height="294" fill="none" stroke="#c8a84a" stroke-width=".4"/><g transform="translate(110,95)"><circle cx="0" cy="0" r="52" fill="none" stroke="#c8a84a" stroke-width="1.5"/><circle cx="0" cy="0" r="42" fill="none" stroke="#c8a84a" stroke-width=".5"/><circle cx="0" cy="-20" r="9" fill="#c8a84a" opacity=".9"/><circle cx="-17" cy="-10" r="9" fill="#c8a84a" opacity=".9"/><circle cx="17" cy="-10" r="9" fill="#c8a84a" opacity=".9"/><circle cx="-26" cy="6" r="9" fill="#c8a84a" opacity=".75"/><circle cx="0" cy="6" r="9" fill="#c8a84a" opacity=".75"/><circle cx="26" cy="6" r="9" fill="#c8a84a" opacity=".75"/><circle cx="-13" cy="22" r="9" fill="#c8a84a" opacity=".6"/><circle cx="13" cy="22" r="9" fill="#c8a84a" opacity=".6"/><line x1="0" y1="-29" x2="0" y2="-44" stroke="#c8a84a" stroke-width="2"/><line x1="0" y1="-36" x2="-10" y2="-46" stroke="#c8a84a" stroke-width="1.5"/><line x1="0" y1="-34" x2="10" y2="-44" stroke="#c8a84a" stroke-width="1.5"/></g><text x="110" y="164" text-anchor="middle" font-family="Georgia,serif" font-size="9.5" fill="#c8a84a" letter-spacing="5">OPUS ONE</text><line x1="32" y1="172" x2="188" y2="172" stroke="#c8a84a" stroke-width=".7"/><text x="110" y="190" text-anchor="middle" font-family="Georgia,serif" font-size="7.5" fill="#c8a84a" letter-spacing="3.5">NAPA VALLEY</text><text x="110" y="224" text-anchor="middle" font-family="Georgia,serif" font-size="36" fill="#c8a84a" letter-spacing="2">2019</text><line x1="32" y1="235" x2="188" y2="235" stroke="#c8a84a" stroke-width=".7"/><text x="110" y="258" text-anchor="middle" font-family="Georgia,serif" font-size="6.5" fill="#c8a84a" letter-spacing="1.5">ROBERT MONDAVI AND BARON PHILIPPE</text><text x="110" y="272" text-anchor="middle" font-family="Georgia,serif" font-size="6.5" fill="#c8a84a" letter-spacing="1.5">DE ROTHSCHILD</text><text x="110" y="292" text-anchor="middle" font-family="Georgia,serif" font-size="6" fill="#c8a84a" letter-spacing="1">PRODUCED AND BOTTLED BY OPUS ONE WINERY</text><text x="110" y="306" text-anchor="middle" font-family="Georgia,serif" font-size="6" fill="#c8a84a">OAKVILLE, CALIFORNIA 14.5% ALC/VOL</text></svg>