<svg viewBox="0 0 220 320" xmlns="http://www.w3.org/2000/svg"><rect width="220" height="320" fill="#f4efe6"/><rect x="5" y="5" width="210" height="310" fill="none" stroke="#4a1428" stroke-width="2"/><rect x="9" y="9" width="202" height="302" fill="none" stroke="#4a1428" stroke-width=".6"/><g transform="translate(110,85)"><circle cx="0" cy="0" r="46" fill="none" stroke="#4a1428" stroke-width="1.3"/><circle cx="0" cy="-19" r="8" fill="#4a1428" opacity=".85"/><circle cx="-9" cy="-9" r="8" fill="#4a1428" opacity=".85"/><circle cx="9" cy="-9" r="8" fill="#4a1428" opacity=".85"/><circle cx="-16" cy="5" r="8" fill="#4a1428" opacity=".75"/><circle cx="0" cy="5" r="8" fill="#4a1428" opacity=".75"/><circle cx="16" cy="5" r="8" fill="#4a1428" opacity=".75"/><circle cx="-9" cy="18" r="8" fill="#4a1428" opacity=".6"/><circle cx="9" cy="18" r="8" fill="#4a1428" opacity=".6"/><line x1="0" y1="-27" x2="0" y2="-42" stroke="#4a1428" stroke-width="2.5"/><line x1="-1" y1="-34" x2="-11" y2="-44" stroke="#4a1428" stroke-width="1.8"/><line x1="1" y1="-32" x2="11" y2="-42" stroke="#4a1428" stroke-width="1.8"/></g><text x="110" y="145" text-anchor="middle" font-family="Georgia,serif" font-size="8.5" fill="#4a1428" letter-spacing="4">DOMAINE LEROY</text><line x1="22" y1="152" x2="198" y2="152" stroke="#4a1428" stroke-width=".8"/><text x="110" y="170" text-anchor="middle" font-family="Georgia,serif" font-size="8" fill="#4a1428" letter-spacing="3.5">CHAMBERTIN</text><text x="110" y="186" text-anchor="middle" font-family="Georgia,serif" font-size="7" fill="#7a2840" letter-spacing="2.5">GRAND CRU</text><line x1="22" y1="194" x2="198" y2="194" stroke="#4a1428" stroke-width=".8"/><text x="110" y="212" text-anchor="middle" font-family="Georgia,serif" font-size="8" fill="#4a1428" letter-spacing="2">APPELLATION CHAMBERTIN</text><text x="110" y="226" text-anchor="middle" font-family="Georgia,serif" font-size="8" fill="#4a1428" letter-spacing="2">CONTROLEE</text><text x="110" y="264" text-anchor="middle" font-family="Georgia,serif" font-size="36" fill="#4a1428">2016</text><line x1="42" y1="274" x2="178" y2="274" stroke="#4a1428" stroke-width=".6"/><text x="110" y="292" text-anchor="middle" font-family="Georgia,serif" font-size="7" fill="#4a1428" letter-spacing="2">MIS EN BOUTEILLE AU DOMAINE</text><text x="110" y="307" text-anchor="middle" font-family="Georgia,serif" font-size="6.5" fill="#4a1428">AUXEY-DURESSES COTE D OR 750 ml</text></svg>